<svg width="120" height="120" viewBox="0 0 447 447" fill="none" xmlns="http://www.w3.org/2000/svg">
  <path d="M173.434 278.472C168.08 283.648 161.902 285.429 154.926 285.293C147.263 285.143 139.589 285.433 131.933 285.15C129.872 285.074 127.373 284.12 125.908 282.705C116.802 273.914 107.891 264.92 98.9957 255.913C81.9059 238.61 81.6357 210.821 98.5431 193.24C107.543 183.882 116.829 174.795 126.135 165.74C127.403 164.506 129.526 163.56 131.279 163.515C139.773 163.294 148.276 163.464 156.775 163.423C163.864 163.388 169.612 166.192 174.546 171.18C186.02 182.781 197.553 194.325 209.147 205.807C219.012 215.578 229.945 215.463 239.758 205.635C251.403 193.972 263.048 182.31 274.677 170.631C279.37 165.918 284.953 163.4 291.663 163.427C300.162 163.461 308.666 163.277 317.158 163.525C319.055 163.58 321.347 164.59 322.718 165.921C331.798 174.739 340.773 183.671 349.599 192.743C367.061 210.692 366.939 238.379 349.405 256.115C340.622 264.999 331.839 273.886 322.862 282.572C321.385 284.001 318.928 285.075 316.883 285.145C308.56 285.429 300.222 285.227 291.889 285.265C285 285.296 279.315 282.658 274.502 277.822C262.873 266.137 251.224 254.47 239.539 242.842C229.586 232.937 218.835 232.943 208.942 242.838C197.17 254.613 185.439 266.43 173.434 278.472Z" fill="#f318ff" />
  <path d="M257.8 347.804C237.628 367.709 210.443 367.498 190.614 347.59C174.761 331.674 158.844 315.821 142.964 299.932C142.157 299.124 141.427 298.239 139.753 296.383C145.154 296.383 149.501 296.199 153.827 296.418C165.766 297.023 175.397 292.641 183.635 284.038C194.453 272.741 205.697 261.852 216.784 250.813C222.36 245.261 226.47 245.321 232.104 250.957C243.75 262.607 255.412 274.241 267.021 285.928C274.084 293.038 282.557 296.547 292.583 296.398C297.533 296.324 302.484 296.385 309.139 296.385C291.422 314.133 274.738 330.845 257.8 347.804Z" fill="#f318ff" />
  <path d="M144.395 152.135C143.007 152.081 142.07 152.024 140.001 151.9C145.416 146.395 150.076 141.587 154.812 136.855C167.284 124.396 179.727 111.906 192.295 99.5443C210.666 81.4743 237.947 81.3682 256.293 99.4157C273.139 115.988 289.769 132.78 306.483 149.487C307.02 150.023 307.432 150.686 308.555 152.128C303.083 152.128 298.522 152.178 293.962 152.118C283.304 151.98 274.194 155.269 266.604 163.115C255.392 174.707 243.823 185.954 232.389 197.33C226.175 203.513 222.504 203.544 216.408 197.468C205.328 186.424 194.063 175.556 183.271 164.238C175.132 155.703 165.486 151.726 153.838 152.115C150.844 152.215 147.844 152.132 144.395 152.135Z" fill="#f318ff" />
</svg>
